<svg id="Layer_1" data-name="Layer 1" xmlns="http://www.w3.org/2000/svg" viewBox="0 0 630 1200"><defs><style>.cls-1{fill:#231f20;stroke:#231f20;stroke-miterlimit:10;}</style></defs><path class="cls-1" d="M450.84,204.75A134.61,134.61,0,1,1,316.25,70.11,134.63,134.63,0,0,1,450.84,204.75"/><path class="cls-1" d="M473.74,410.24c-8-21.73-29.59-34-51.51-34-11,0-12,.29-18.5.29h-196c-25.07,0-43.52,12-51.51,33.73L61.49,701.48c-9,24.56,3.18,52,27.25,61.18s50.91-3.23,60-27.81l25.2-68.55s1.78-6.91,1.78,23.27V1093.8c0,35.33,28.06,64,62.71,64s62.68-28.64,62.68-64V829.7a2,2,0,0,1,2.13-2.33h23.54a2.14,2.14,0,0,1,2.2,2.33v264.1c0,35.33,28.08,64,62.69,64s62.7-28.64,62.7-64V689.57c0-30.67,2.63-21,2.63-21l24.35,66.28c9,24.58,35.87,37,60,27.81S577.54,726,568.5,701.48Z"/></svg>